<?xml version="1.0" standalone="no"?>
<!DOCTYPE svg PUBLIC "-//W3C//DTD SVG 20010904//EN"
 "http://www.w3.org/TR/2001/REC-SVG-20010904/DTD/svg10.dtd">
<svg version="1.0" xmlns="http://www.w3.org/2000/svg"
 width="600.000000pt" height="400.000000pt" viewBox="0 0 600.000000 400.000000"
 preserveAspectRatio="xMidYMid meet">
<g transform="translate(0.000000,400.000000) scale(0.100000,-0.100000)"
fill="#000000" stroke="none">
<path d="M2829 3290 c-109 -19 -183 -71 -228 -161 -16 -33 -43 -75 -59 -94
l-30 -33 -21 65 c-30 91 -45 116 -91 155 -69 60 -174 76 -287 43 l-55 -16 44
-42 c24 -23 61 -66 83 -95 43 -58 114 -102 163 -102 51 0 92 12 92 26 0 41
-170 168 -199 150 -5 -4 -12 -2 -16 4 -3 5 -13 10 -22 10 -14 0 -14 -3 3 -18
10 -11 24 -19 29 -19 34 0 45 -4 39 -14 -4 -7 0 -9 14 -5 19 6 38 -16 33 -38
-1 -5 6 -3 15 5 16 13 16 12 5 -9 -12 -22 -11 -23 8 -13 15 9 23 7 35 -5 9 -9
14 -19 11 -24 -3 -5 -2 -10 2 -13 5 -2 2 -2 -6 0 -8 2 -18 -2 -22 -8 -5 -9
-16 -8 -43 5 -20 9 -40 15 -44 12 -4 -2 -16 3 -27 11 -19 15 -19 15 5 9 23 -5
23 -4 -2 6 -16 7 -28 16 -28 21 0 4 -5 5 -11 1 -7 -4 -10 -1 -7 7 2 7 -8 24
-24 37 -15 13 -28 30 -28 37 0 8 -5 17 -12 21 -7 5 -8 3 -3 -6 5 -8 4 -11 -3
-6 -6 4 -9 13 -5 22 3 8 1 14 -5 12 -5 -2 -10 2 -10 7 -1 6 8 9 19 8 11 -2 18
1 15 5 -3 5 25 8 62 7 100 -2 114 -4 107 -14 -3 -5 0 -13 6 -17 8 -4 9 -3 5 4
-12 19 3 14 40 -15 20 -16 42 -41 51 -57 l15 -29 -30 22 c-17 11 -34 21 -39
21 -6 0 -18 9 -28 20 -10 11 -20 18 -23 15 -3 -2 -12 0 -21 5 -30 15 -99 22
-107 9 -4 -7 -2 -10 7 -7 37 12 183 -61 232 -117 69 -78 63 -130 -32 -318 -68
-134 -73 -147 -78 -224 -3 -46 -2 -83 3 -83 5 0 22 16 37 35 32 40 83 69 142
80 45 8 716 23 714 15 -1 -3 -35 -36 -78 -74 -42 -38 -137 -128 -211 -200 -74
-72 -200 -194 -280 -271 -356 -343 -438 -427 -433 -441 4 -12 69 -14 384 -14
378 0 378 0 403 -22 83 -73 -4 -184 -159 -203 -27 -3 -92 -13 -144 -22 l-94
-17 -58 32 c-33 18 -79 34 -106 37 l-48 5 48 -13 c57 -17 84 -37 48 -37 -12 0
-32 -5 -44 -12 -12 -6 -38 -15 -57 -19 -37 -8 -21 -7 102 7 33 4 53 1 68 -9
20 -14 20 -14 -9 -20 -16 -4 -56 -23 -88 -44 -86 -55 -160 -82 -222 -83 -30 0
-51 -3 -48 -6 3 -4 30 -6 59 -6 l53 1 -35 -29 c-19 -15 -32 -31 -30 -34 3 -3
26 12 50 33 25 21 63 44 85 51 22 7 65 25 95 40 70 35 120 47 120 28 0 -24
-35 -66 -85 -105 -41 -31 -58 -38 -93 -37 -50 1 -44 -13 8 -18 l35 -3 -27 -27
c-14 -15 -39 -30 -55 -33 -43 -10 -59 -17 -48 -21 6 -2 32 2 58 10 43 13 47
13 47 -3 0 -9 -7 -27 -16 -39 -9 -13 -14 -26 -11 -29 10 -9 47 60 47 87 0 29
35 70 90 105 22 14 41 25 42 25 2 0 4 -30 6 -66 3 -64 2 -66 -32 -98 -49 -44
-46 -55 4 -16 33 26 41 29 46 16 3 -9 3 -28 0 -44 -5 -23 -5 -24 5 -9 7 12 8
40 4 77 l-7 59 32 -15 c17 -9 34 -13 37 -10 3 3 -3 9 -13 12 -38 14 -54 36
-54 76 0 82 46 140 119 152 22 3 45 14 50 24 6 9 11 12 11 6 0 -6 -9 -19 -19
-28 -10 -10 -24 -37 -30 -62 -9 -33 -20 -50 -41 -62 -17 -9 -30 -21 -30 -25 0
-9 38 9 63 31 15 14 17 13 17 -3 0 -10 -7 -27 -17 -37 -9 -10 -12 -18 -7 -18
22 0 34 27 34 77 0 68 29 103 87 103 21 1 54 7 74 14 l37 13 -29 -40 c-16 -23
-36 -64 -44 -92 -14 -48 -19 -53 -73 -77 -54 -25 -118 -78 -95 -78 6 0 17 7
24 17 14 16 69 43 89 43 6 0 0 -15 -13 -32 -14 -18 -38 -60 -55 -94 -36 -72
-48 -83 -99 -91 -40 -6 -63 -19 -63 -35 0 -5 10 -2 22 6 12 9 35 16 51 16 25
0 28 -2 17 -15 -19 -23 -79 -57 -114 -65 -31 -8 -31 -8 -3 -9 46 -2 90 23 140
79 l47 52 0 -49 c0 -27 -5 -54 -12 -61 -6 -6 -9 -14 -6 -18 15 -14 40 60 35
101 -7 46 14 95 67 162 l28 35 20 -54 c11 -29 22 -71 25 -94 4 -35 1 -43 -19
-56 -13 -9 -33 -18 -43 -21 -16 -4 -15 -5 5 -6 14 0 36 6 48 15 21 15 22 14
22 -19 0 -22 -11 -49 -30 -76 -17 -23 -33 -56 -35 -74 l-5 -32 11 30 c7 17 22
42 35 57 l22 27 7 -27 c7 -29 54 -96 62 -89 2 3 -8 22 -22 43 -24 35 -26 46
-24 127 l3 90 28 -32 c19 -21 28 -42 28 -66 0 -18 5 -37 12 -41 8 -5 9 -2 5
10 -4 10 -7 33 -7 51 0 23 -10 45 -34 73 -45 55 -72 153 -57 208 13 47 13 54
3 54 -11 0 -32 -46 -32 -70 0 -11 -5 -20 -11 -20 -5 0 -7 6 -3 13 5 8 2 8 -9
-2 -27 -22 -20 5 9 34 14 14 23 32 20 40 -3 8 -1 17 5 20 5 4 6 11 3 17 -5 7
-2 8 6 3 10 -6 12 -4 7 8 -4 11 2 25 16 38 12 12 15 18 7 14 -10 -6 -9 -1 4
13 10 12 16 28 13 36 -3 8 -3 17 1 21 4 4 8 11 8 16 1 5 2 14 3 19 2 14 31 13
31 -2 0 -6 3 -8 6 -5 4 4 1 14 -7 24 -8 9 -9 14 -4 11 12 -8 38 11 44 32 35
125 -21 180 -227 221 -148 30 -173 57 -131 146 13 26 25 53 28 58 2 6 -4 3
-15 -5 -18 -14 -18 -14 -5 3 8 9 16 15 19 12 7 -6 43 25 38 34 -2 3 6 15 17
26 11 11 17 15 14 9 -3 -6 0 -11 8 -11 10 0 11 5 4 19 -5 10 -6 18 -2 17 18
-3 33 1 30 9 -3 10 39 62 51 62 5 0 20 16 33 35 13 19 27 35 32 35 4 0 7 5 7
12 0 7 -16 -3 -35 -22 -19 -18 -31 -38 -28 -43 3 -6 1 -7 -6 -3 -7 5 -67 -49
-160 -141 -155 -155 -177 -189 -146 -223 17 -19 112 -47 122 -36 4 3 -1 6 -10
6 -24 0 -21 15 3 17 11 1 20 -2 20 -7 0 -10 104 -32 151 -31 14 1 33 -5 42
-11 14 -11 -2 -13 -92 -13 -60 0 -105 3 -99 6 5 4 -23 14 -63 23 -86 19 -99
28 -99 70 0 46 28 80 222 270 95 93 161 159 147 148 -31 -27 -48 -29 -26 -4
15 16 15 19 2 19 -8 0 -13 -3 -10 -5 3 -3 0 -11 -6 -19 -6 -7 -9 -13 -5 -13 3
0 -4 -11 -16 -25 -14 -16 -25 -21 -32 -16 -7 6 -18 4 -29 -4 -16 -11 -16 -13
-2 -19 9 -3 13 -2 10 3 -3 5 0 13 6 16 7 5 10 0 7 -11 -2 -11 -10 -18 -19 -17
-8 2 -19 -7 -24 -20 -6 -12 -19 -22 -30 -22 -11 0 -20 -6 -20 -14 0 -8 -12
-15 -28 -17 -18 -2 -25 1 -21 8 4 7 2 8 -5 4 -15 -10 -3 -29 15 -22 11 4 11 0
-2 -19 -15 -23 -83 -80 -96 -80 -3 0 -10 -4 -15 -9 -5 -6 -2 -6 6 -1 11 6 13
4 8 -9 -4 -10 -7 -20 -7 -22 0 -3 -5 -2 -10 1 -6 4 -9 3 -8 -2 1 -4 -4 -19
-11 -32 -7 -13 -15 -40 -16 -60 -4 -47 34 -80 102 -88 60 -6 68 -13 17 -14
-204 -5 -384 -3 -384 6 0 6 -5 3 -11 -5 -9 -13 -10 -13 -6 0 2 8 12 14 21 14
13 -2 14 1 6 12 -9 10 -6 12 17 9 15 -2 23 -2 16 1 -23 10 -2 33 27 29 18 -2
34 3 42 13 11 13 11 14 -2 7 -23 -15 -48 -16 -56 -3 -4 6 -3 8 3 5 6 -4 16 0
23 8 7 8 16 12 21 10 4 -3 6 4 4 15 -2 11 0 18 4 15 11 -6 33 20 24 29 -4 4 1
4 12 0 11 -4 17 -4 13 1 -10 11 50 58 63 49 8 -4 9 -3 5 4 -9 15 11 52 27 52
9 0 9 -3 -1 -9 -10 -6 -10 -10 3 -21 13 -11 15 -10 9 4 -4 10 5 26 26 46 32
30 48 34 63 15 4 -5 5 2 1 18 -7 29 11 61 29 50 6 -3 7 -1 3 6 -10 15 36 63
55 58 8 -2 11 -2 6 0 -4 3 -4 9 -1 14 4 6 10 6 18 0 9 -8 13 -7 13 4 0 8 -4
12 -9 9 -4 -3 -8 -2 -8 3 1 4 18 22 39 38 21 17 36 34 33 39 -3 5 0 6 6 2 6
-3 20 7 32 24 12 17 26 27 32 24 6 -4 8 -2 4 4 -8 14 50 55 65 46 7 -4 9 -3 6
3 -4 5 2 19 13 30 10 12 16 24 13 27 -4 3 1 6 10 6 10 0 17 6 17 13 0 8 3 7 9
-3 6 -8 8 -17 6 -20 -2 -4 2 -7 10 -7 11 0 12 4 4 14 -9 10 -8 13 2 13 9 1 8
4 -4 11 -9 6 -15 15 -11 21 4 6 10 5 15 -3 7 -11 9 -10 9 4 0 9 5 17 10 17 6
0 10 7 10 15 0 9 6 12 17 8 10 -4 14 -2 10 4 -3 5 9 24 28 40 19 17 31 34 27
38 -4 5 -1 5 6 1 7 -4 15 -1 18 8 3 9 9 14 14 11 4 -2 12 7 19 21 6 15 17 24
24 21 16 -6 17 34 2 45 -6 5 -3 8 7 8 9 0 20 4 23 10 4 6 -2 7 -17 1 -27 -10
-58 -9 -77 4 -8 4 -12 4 -9 -1 4 -5 -112 -9 -280 -9 -174 0 -312 -5 -351 -12
-35 -6 -69 -10 -75 -9 -6 2 -7 1 -2 -2 8 -4 -46 -34 -66 -36 -3 -1 -10 -5 -15
-10 -5 -6 -2 -6 7 -1 13 8 13 7 1 -9 -14 -16 -15 -16 -24 0 -6 10 -6 19 0 23
5 3 10 15 10 26 3 45 8 65 17 65 5 0 6 3 3 7 -4 3 1 12 11 20 9 8 11 12 5 8
-7 -3 -13 -1 -13 5 0 6 7 13 15 16 8 4 12 10 9 15 -3 5 -1 9 5 9 5 0 13 10 17
23 3 12 11 28 17 36 6 7 12 19 13 26 1 8 9 24 18 37 12 17 16 19 16 6 0 -9 -5
-18 -10 -20 -6 -2 -12 -14 -15 -27 -2 -12 -10 -30 -17 -40 -7 -9 -9 -13 -4 -9
5 4 15 1 23 -7 12 -13 94 -15 536 -16 287 -1 527 -2 532 -4 6 -1 18 -3 27 -3
14 -2 16 -7 9 -24 -4 -12 -14 -24 -21 -26 -9 -3 -10 0 -4 9 7 12 5 12 -9 0
-18 -14 -22 -22 -9 -20 22 4 23 -4 2 -26 -12 -13 -27 -22 -31 -19 -5 3 -6 -2
-3 -11 5 -11 2 -14 -9 -9 -11 4 -24 -7 -42 -36 -21 -33 -29 -39 -40 -30 -11 9
-12 7 -8 -11 5 -17 3 -20 -7 -14 -8 5 -11 4 -7 -2 7 -11 -33 -49 -48 -44 -5 1
-7 0 -4 -3 8 -8 -71 -90 -94 -99 -11 -4 -15 -12 -11 -19 5 -8 2 -9 -10 -5 -9
4 -15 3 -12 -1 7 -11 -21 -45 -33 -38 -5 4 -12 2 -16 -4 -4 -6 -10 -8 -15 -5
-4 3 -7 -3 -5 -12 3 -22 -34 -65 -48 -56 -6 3 -7 1 -3 -5 4 -7 2 -12 -4 -12
-6 0 -8 -5 -5 -10 3 -6 -1 -13 -9 -16 -13 -5 -91 -73 -128 -111 -4 -5 -26 -27
-48 -51 -23 -23 -45 -40 -50 -37 -6 3 -7 0 -5 -7 6 -14 -44 -78 -61 -78 -5 0
-22 -19 -38 -42 -22 -31 -30 -53 -30 -87 -1 -54 8 -60 145 -97 49 -13 108 -33
130 -45 54 -27 62 -18 10 12 -23 12 -39 24 -37 27 3 2 15 -3 27 -11 11 -9 28
-13 37 -10 10 4 13 2 8 -5 -4 -7 -2 -13 3 -13 6 -1 16 -3 21 -4 6 -1 15 -3 21
-4 5 0 8 -5 5 -10 -3 -5 4 -11 15 -14 11 -3 23 -15 26 -26 3 -12 9 -21 14 -21
5 0 9 -5 9 -11 0 -5 -6 -7 -12 -3 -10 6 -10 5 -1 -7 16 -20 23 -89 11 -108
-17 -29 8 -68 60 -95 80 -40 106 -104 77 -185 -11 -32 -12 -48 -4 -55 6 -7 9
-7 8 -1 -2 6 3 26 11 46 l13 37 26 -37 c21 -29 26 -48 26 -93 -1 -33 3 -54 8
-49 5 5 9 29 9 53 l1 45 40 -14 c63 -22 92 -40 126 -78 17 -20 31 -31 31 -25
0 6 -21 33 -46 60 -32 35 -59 53 -88 61 -55 14 -92 52 -112 113 -28 87 -50
120 -93 144 -44 25 -61 62 -61 137 0 87 -63 159 -160 184 -69 18 -95 22 -81
13 8 -6 9 -12 3 -16 -5 -3 -15 0 -21 8 -11 13 -63 28 -101 31 -8 1 -14 7 -12
13 2 10 -3 10 -19 1 -15 -8 -19 -8 -15 0 6 9 -11 15 -35 13 -10 -1 -5 86 6 95
6 4 7 4 3 -1 -4 -5 0 -15 10 -23 16 -12 16 -13 -3 -8 -11 3 -5 -2 13 -10 17
-8 32 -19 32 -25 0 -5 7 -6 17 -3 9 4 14 2 10 -3 -7 -13 121 -9 198 5 92 17
135 13 226 -20 54 -20 97 -29 121 -27 21 2 39 0 40 -4 4 -9 98 32 122 54 30
28 39 10 12 -25 -50 -63 -71 -85 -78 -81 -3 2 -9 0 -13 -6 -3 -5 -15 -10 -26
-10 -13 0 -18 4 -13 12 4 6 3 8 -4 4 -6 -3 -15 1 -20 10 -5 9 -13 16 -18 16
-10 1 -30 6 -54 16 -8 3 -35 7 -60 9 -25 2 -61 5 -81 7 -27 2 -39 -2 -48 -16
-9 -14 -8 -17 1 -16 7 2 12 -2 11 -9 -2 -7 6 -10 17 -8 10 2 24 -3 30 -11 7
-7 16 -11 21 -8 5 3 9 0 9 -6 0 -6 4 -9 9 -6 5 3 14 0 20 -8 9 -11 7 -13 -11
-10 -45 7 -54 10 -93 37 -22 15 -46 27 -55 27 -13 0 -13 2 0 11 12 9 12 10 -4
5 -10 -4 -26 -1 -34 6 -12 10 -14 10 -8 1 5 -9 2 -11 -9 -7 -12 5 -13 10 -6
17 16 16 184 19 193 4 6 -9 8 -9 8 0 0 28 -42 36 -139 28 -53 -5 -130 -9 -173
-9 -74 -1 -88 -9 -44 -26 12 -4 29 -3 40 2 13 7 16 7 12 -1 -5 -7 3 -10 23 -7
17 2 28 0 26 -4 -3 -4 12 -11 33 -14 52 -10 140 -54 152 -77 9 -16 22 -19 81
-19 85 0 125 -18 145 -65 18 -44 17 -123 -1 -155 -17 -29 -20 -100 -4 -100 6
0 8 8 4 19 -7 23 4 71 16 71 5 0 9 -5 9 -11 0 -6 12 -25 26 -42 21 -25 24 -37
19 -65 -4 -23 -3 -32 4 -27 19 11 12 71 -10 99 -12 15 -24 48 -27 74 l-5 47
60 -53 c71 -61 80 -87 52 -152 -14 -30 -18 -56 -14 -77 8 -45 22 -42 17 3 -3
22 2 48 14 69 l17 33 24 -32 c13 -17 31 -44 40 -60 27 -45 60 -76 80 -75 16 0
15 1 -2 9 -25 10 -40 28 -50 58 -7 23 -6 23 24 8 16 -9 45 -16 63 -15 31 0 30
1 -13 13 -63 17 -110 46 -131 82 l-18 31 64 -1 c43 -1 70 -6 82 -17 22 -19 79
-35 69 -19 -3 5 -12 10 -19 10 -8 0 -24 9 -37 19 l-24 19 42 12 c22 7 54 23
69 36 28 24 28 24 -25 -2 -37 -18 -77 -29 -123 -32 -66 -5 -68 -4 -98 28 -16
18 -30 36 -30 41 0 9 51 14 103 11 17 -1 26 2 22 8 -3 5 -37 10 -74 10 -95 0
-128 23 -158 109 -26 77 -64 118 -143 156 -33 16 -58 30 -56 32 7 7 111 -39
143 -63 40 -30 50 -30 99 2 71 46 140 179 120 230 -7 18 -9 17 -24 -6 -85
-126 -184 -151 -331 -86 -101 46 -143 50 -291 28 -136 -20 -173 -17 -178 14
-5 38 72 123 437 481 200 197 375 375 390 397 l25 38 -23 19 c-23 19 -46 19
-573 17 l-549 -3 6 25 c9 39 29 49 74 37 31 -8 48 -7 82 6 100 39 100 65 2 74
-65 6 -129 -16 -119 -42 2 -7 -1 -16 -8 -18 -26 -10 -6 84 28 133 54 78 167
183 229 213 54 26 57 30 40 42 -20 16 -20 15 49 20 40 3 48 0 54 -17 4 -13 -1
-27 -14 -41 -10 -12 -27 -36 -37 -54 -10 -18 -22 -30 -27 -27 -5 3 -5 10 -2
16 4 7 2 8 -5 4 -6 -4 -9 -16 -6 -26 3 -10 0 -22 -6 -26 -8 -4 -9 -3 -5 4 5 8
2 10 -8 6 -9 -3 -14 -9 -11 -14 8 -13 -40 -29 -58 -19 -13 8 -15 6 -11 -6 10
-24 -16 -17 -27 8 -9 22 -10 22 -5 0 5 -27 -18 -37 -36 -15 -8 10 -9 13 -1 9
7 -5 18 3 27 20 8 15 15 24 16 20 0 -5 7 -1 16 8 9 9 22 14 30 11 8 -3 11 2 9
13 -2 13 3 18 18 18 40 1 47 3 47 14 0 8 -5 7 -15 -1 -13 -11 -14 -10 -10 2 3
9 18 21 32 27 14 6 23 14 20 17 -3 3 -33 -9 -67 -27 -57 -30 -170 -138 -170
-162 0 -15 116 0 165 22 24 10 60 36 81 58 41 40 118 175 107 187 -8 8 -74 6
-134 -4z m-29 -45 c11 -13 8 -15 -14 -15 -14 0 -26 -5 -26 -11 0 -6 -9 -8 -21
-4 -12 4 -19 3 -17 -1 7 -12 -69 -77 -76 -66 -5 9 22 41 56 68 20 15 51 27 67
25 7 -1 10 2 6 8 -10 17 11 13 25 -4z m-175 -354 c-50 -20 -85 -29 -85 -21 0
11 49 28 80 29 22 0 23 -1 5 -8z m855 -295 c0 -3 -4 -8 -10 -11 -5 -3 -10 -1
-10 4 0 6 5 11 10 11 6 0 10 -2 10 -4z m-310 -290 c0 -2 -8 -10 -17 -17 -16
-13 -17 -12 -4 4 13 16 21 21 21 13z m-585 -356 c-3 -5 -12 -10 -18 -10 -7 0
-6 4 3 10 19 12 23 12 15 0z m86 -119 c-8 -5 -10 -14 -6 -22 6 -11 5 -11 -5
-2 -11 10 -11 15 0 28 7 8 15 13 19 10 3 -3 -1 -10 -8 -14z m-19 -72 c-8 -12
-10 -19 -5 -16 5 3 16 -8 25 -24 9 -16 14 -28 10 -28 -4 1 -9 0 -12 -1 -17 -6
-50 -5 -50 2 0 5 -3 7 -7 5 -11 -7 -27 14 -31 37 -3 18 -2 18 14 6 15 -13 16
-13 10 7 -5 15 -1 28 11 41 15 16 20 17 33 5 12 -11 12 -17 2 -34z m551 -65
c45 -15 115 -69 105 -80 -3 -2 -19 8 -35 23 -17 16 -56 36 -87 46 -31 10 -56
20 -56 23 0 8 27 4 73 -12z m-237 -319 c-3 -20 -16 -31 -16 -13 0 13 8 28 16
28 1 0 1 -7 0 -15z m-42 -26 c-31 -12 -39 -10 -19 5 11 8 24 12 29 8 5 -3 1
-9 -10 -13z m-94 -3 c0 -2 -7 -7 -16 -10 -8 -3 -12 -2 -9 4 6 10 25 14 25 6z
m-190 -33 c7 7 5 -3 -5 -21 -16 -33 -17 -34 -38 -16 -12 11 -24 21 -27 23 -3
2 5 1 18 -2 20 -5 21 -3 10 10 -11 14 -11 15 8 5 16 -8 24 -8 34 1z"/>
<path d="M2659 3163 c-13 -16 -12 -17 4 -4 16 13 21 21 13 21 -2 0 -10 -8 -17
-17z"/>
<path d="M2625 1769 c-4 -6 -5 -12 -2 -15 2 -3 7 2 10 11 7 17 1 20 -8 4z"/>
<path d="M2647 1717 c-3 -8 1 -14 8 -14 7 0 11 6 8 14 -3 7 -6 13 -8 13 -2 0
-5 -6 -8 -13z"/>
<path d="M2850 3256 c0 -2 7 -7 16 -10 8 -3 12 -2 9 4 -6 10 -25 14 -25 6z"/>
<path d="M2755 3080 c-3 -6 1 -7 9 -4 18 7 21 14 7 14 -6 0 -13 -4 -16 -10z"/>
<path d="M3256 2602 c-3 -5 1 -9 9 -9 8 0 12 4 9 9 -3 4 -7 8 -9 8 -2 0 -6 -4
-9 -8z"/>
<path d="M3305 2470 c-4 -6 -11 -7 -17 -4 -7 4 -8 2 -4 -4 7 -12 36 -5 36 9 0
12 -7 11 -15 -1z"/>
<path d="M2804 2283 c2 -10 6 -17 10 -16 15 3 16 11 2 22 -12 10 -14 9 -12 -6z"/>
<path d="M2725 2219 c-4 -6 -5 -12 -2 -15 2 -3 7 2 10 11 7 17 1 20 -8 4z"/>
<path d="M3045 2221 c-3 -5 -2 -12 3 -15 5 -3 9 1 9 9 0 17 -3 19 -12 6z"/>
<path d="M2854 2196 c1 -8 5 -18 8 -22 4 -3 5 1 4 10 -1 8 -5 18 -8 22 -4 3
-5 -1 -4 -10z"/>
<path d="M2790 2146 c0 -2 7 -9 15 -16 9 -7 15 -8 15 -2 0 5 -7 12 -15 16 -8
3 -15 4 -15 2z"/>
<path d="M2770 2115 c-7 -9 -11 -17 -9 -20 3 -2 10 5 17 15 14 24 10 26 -8 5z"/>
<path d="M2835 2109 c-4 -6 -5 -12 -2 -15 2 -3 7 2 10 11 7 17 1 20 -8 4z"/>
<path d="M2696 2041 c8 -9 44 -11 44 -3 0 4 -11 8 -25 8 -13 0 -22 -2 -19 -5z"/>
<path d="M2668 2023 c6 -2 9 -10 6 -15 -4 -7 -2 -8 5 -4 13 9 5 26 -12 25 -9
0 -8 -2 1 -6z"/>
<path d="M2486 1958 c3 -5 10 -6 15 -3 13 9 11 12 -6 12 -8 0 -12 -4 -9 -9z"/>
<path d="M2620 1910 c-8 -5 -10 -10 -5 -10 6 0 17 5 25 10 8 5 11 10 5 10 -5
0 -17 -5 -25 -10z"/>
<path d="M2827 1859 c7 -7 15 -10 18 -7 3 3 -2 9 -12 12 -14 6 -15 5 -6 -5z"/>
<path d="M2449 1803 c-13 -16 -12 -17 4 -4 9 7 17 15 17 17 0 8 -8 3 -21 -13z"/>
<path d="M2455 1779 c-4 -6 -5 -12 -2 -15 2 -3 7 2 10 11 7 17 1 20 -8 4z"/>
<path d="M2759 1763 c-13 -16 -12 -17 4 -4 9 7 17 15 17 17 0 8 -8 3 -21 -13z"/>
<path d="M3529 1763 c-13 -16 -12 -17 4 -4 9 7 17 15 17 17 0 8 -8 3 -21 -13z"/>
<path d="M3166 1657 c3 -10 9 -15 12 -12 3 3 0 11 -7 18 -10 9 -11 8 -5 -6z"/>
<path d="M3030 1610 c0 -5 5 -10 11 -10 5 0 7 5 4 10 -3 6 -8 10 -11 10 -2 0
-4 -4 -4 -10z"/>
<path d="M3102 1431 c1 -16 -4 -28 -22 -51 -17 -21 -19 -22 -14 -5 3 12 -1 9
-11 -7 -8 -16 -19 -28 -24 -28 -5 0 -11 -9 -14 -21 -3 -12 -10 -18 -16 -14 -7
3 -11 -3 -11 -15 0 -12 -4 -29 -10 -39 -6 -12 -6 -30 0 -51 8 -27 7 -30 -5
-20 -8 7 -13 15 -11 19 3 4 -4 7 -14 8 -18 2 -18 0 2 -33 11 -19 39 -49 61
-67 22 -18 62 -53 89 -78 45 -43 48 -50 50 -100 2 -72 2 -79 -6 -114 l-6 -30
13 28 14 29 17 -27 c10 -15 20 -24 23 -21 4 3 -2 15 -12 26 -11 13 -20 41 -23
75 l-4 54 38 -19 c23 -12 47 -35 59 -57 11 -20 27 -39 35 -41 12 -4 12 -1 -2
14 -9 10 -20 32 -24 48 -7 28 -6 29 22 22 16 -4 34 -14 40 -22 6 -7 15 -14 19
-14 5 0 -2 11 -15 25 -15 16 -34 25 -54 25 -45 0 -97 30 -117 68 -9 19 -24 41
-33 51 -16 18 -22 36 -8 28 4 -3 25 -1 47 3 39 8 39 8 -17 9 -51 1 -62 5 -97
36 -77 70 -76 119 6 198 45 45 74 114 47 114 -7 0 -13 -3 -12 -6z"/>
<path d="M3075 1410 c-3 -5 -1 -10 4 -10 6 0 11 5 11 10 0 6 -2 10 -4 10 -3 0
-8 -4 -11 -10z"/>
</g>
</svg>
